# xmcd
#
# Track frame offsets:
#	150
#	25133
#	42564
#	59085
#	84691
#	105411
#	126053
#	156405
#	182591
#	203580
#	235816
#	253858
#
# Disc length: 3742 seconds
#
# Revision: 0
# Processed by: cddbd v1.5.2PL0 Copyright (c) Steve Scherf et al.
# Submitted via: audiograbber 1.83.01
#
DISCID=a30e9c0c
DTITLE=Nüt Verunguet - First Blues
DYEAR=2012
DGENRE=Blues
TTITLE0=First Blues
TTITLE1=Valley Of Tears
TTITLE2=Time Is Money
TTITLE3=Out To Taste
TTITLE4=In The Mood
TTITLE5=Happy With The Blues
TTITLE6=I'm In Trouble
TTITLE7=Baby In The Red Boots
TTITLE8=Funk
TTITLE9=Thrill
TTITLE10=Blues Doctor
TTITLE11=Dr Wiud West
EXTD=
EXTT0=
EXTT1=
EXTT2=
EXTT3=
EXTT4=
EXTT5=
EXTT6=
EXTT7=
EXTT8=
EXTT9=
EXTT10=
EXTT11=
PLAYORDER=
